<svg width="251" height="27" viewBox="0 0 251 27" fill="none" xmlns="http://www.w3.org/2000/svg">
<path d="M23.7336 13.276C24.7112 13.5768 25.5509 14.2411 26.2528 15.2688C26.9547 16.2715 27.3056 17.4245 27.3056 18.728C27.3056 21.5104 26.4032 23.5909 24.5984 24.9696C22.7936 26.3232 20.1616 27 16.7024 27H1.2112C0.935467 27 0.697333 26.8997 0.4968 26.6992C0.296267 26.4987 0.196 26.2605 0.196 25.9848V1.6952C0.196 1.41947 0.296267 1.18133 0.4968 0.9808C0.697333 0.780266 0.935467 0.679999 1.2112 0.679999H16.3264C19.8859 0.679999 22.5053 1.33173 24.1848 2.6352C25.8893 3.9136 26.7416 5.85627 26.7416 8.4632V8.576C26.7416 9.7792 26.4157 10.8069 25.764 11.6592C25.1123 12.5115 24.4355 13.0504 23.7336 13.276ZM16.552 8.8016C16.552 8.3504 16.4141 7.96187 16.1384 7.636C15.8877 7.31013 15.5117 7.1472 15.0104 7.1472H9.972V10.5688H15.0104C15.5117 10.5688 15.8877 10.3933 16.1384 10.0424C16.4141 9.6664 16.552 9.2528 16.552 8.8016ZM15.424 20.5328C16.0005 20.5328 16.4267 20.3448 16.7024 19.9688C17.0032 19.5677 17.1536 19.1291 17.1536 18.6528V18.6152C17.1536 18.1389 16.9907 17.7253 16.6648 17.3744C16.364 17.0235 15.9504 16.848 15.424 16.848H9.972V20.5328H15.424ZM57.1077 19.668C57.3834 19.668 57.6216 19.7683 57.8221 19.9688C58.0226 20.1693 58.1229 20.4075 58.1229 20.6832V25.9848C58.1229 26.2605 58.0226 26.4987 57.8221 26.6992C57.6216 26.8997 57.3834 27 57.1077 27H33.3445C33.0688 27 32.8306 26.8997 32.6301 26.6992C32.4296 26.4987 32.3293 26.2605 32.3293 25.9848V1.6952C32.3293 1.41947 32.4296 1.18133 32.6301 0.9808C32.8306 0.780266 33.0688 0.679999 33.3445 0.679999H56.7317C57.0074 0.679999 57.2456 0.780266 57.4461 0.9808C57.6466 1.18133 57.7469 1.41947 57.7469 1.6952V6.9968C57.7469 7.27253 57.6466 7.51067 57.4461 7.7112C57.2456 7.91173 57.0074 8.012 56.7317 8.012H42.1053V10.3808H54.6637C54.9394 10.3808 55.1776 10.4811 55.3781 10.6816C55.5786 10.8821 55.6789 11.1203 55.6789 11.396V16.284C55.6789 16.5597 55.5786 16.7979 55.3781 16.9984C55.1776 17.1989 54.9394 17.2992 54.6637 17.2992H42.1053V19.668H57.1077ZM89.053 19.668C89.3288 19.668 89.5669 19.7683 89.7674 19.9688C89.968 20.1693 90.0682 20.4075 90.0682 20.6832V25.9848C90.0682 26.2605 89.968 26.4987 89.7674 26.6992C89.5669 26.8997 89.3288 27 89.053 27H65.2898C65.0141 27 64.776 26.8997 64.5754 26.6992C64.3749 26.4987 64.2746 26.2605 64.2746 25.9848V1.6952C64.2746 1.41947 64.3749 1.18133 64.5754 0.9808C64.776 0.780266 65.0141 0.679999 65.2898 0.679999H88.677C88.9528 0.679999 89.1909 0.780266 89.3914 0.9808C89.592 1.18133 89.6922 1.41947 89.6922 1.6952V6.9968C89.6922 7.27253 89.592 7.51067 89.3914 7.7112C89.1909 7.91173 88.9528 8.012 88.677 8.012H74.0506V10.3808H86.609C86.8848 10.3808 87.1229 10.4811 87.3234 10.6816C87.524 10.8821 87.6242 11.1203 87.6242 11.396V16.284C87.6242 16.5597 87.524 16.7979 87.3234 16.9984C87.1229 17.1989 86.8848 17.2992 86.609 17.2992H74.0506V19.668H89.053ZM122.766 25.7592C122.841 25.8344 122.878 25.9347 122.878 26.06C122.878 26.3107 122.791 26.5363 122.615 26.7368C122.465 26.9123 122.277 27 122.051 27H113.967C113.29 27 112.776 26.7117 112.426 26.1352L108.778 20.5328L105.206 26.1352C104.83 26.7117 104.316 27 103.665 27H95.5431C95.3175 27 95.117 26.9248 94.9415 26.7744C94.7911 26.5989 94.7159 26.3984 94.7159 26.1728V26.06C94.7159 25.9347 94.7535 25.8344 94.8287 25.7592L103.138 13.0504L95.7311 1.9208C95.6559 1.82053 95.6183 1.68267 95.6183 1.5072C95.6183 1.2816 95.6935 1.0936 95.8439 0.9432C96.0194 0.767733 96.2199 0.679999 96.4455 0.679999H104.567C105.219 0.679999 105.745 0.993333 106.146 1.62L109.079 6.4328L112.238 1.5448C112.413 1.3192 112.601 1.11867 112.802 0.9432C113.027 0.767733 113.353 0.679999 113.779 0.679999H121.863C122.089 0.679999 122.277 0.767733 122.427 0.9432C122.603 1.0936 122.69 1.2816 122.69 1.5072V1.62C122.69 1.74533 122.653 1.8456 122.578 1.9208L114.719 13.5392L122.766 25.7592ZM144.596 0.679999C146.953 0.679999 149.008 1.08107 150.763 1.8832C152.518 2.68533 153.859 3.77573 154.786 5.1544C155.714 6.53307 156.177 8.07467 156.177 9.7792C156.177 12.5867 155.3 14.7925 153.545 16.3968C151.791 17.976 148.808 18.7656 144.596 18.7656H139.633V25.9848C139.633 26.2605 139.533 26.4987 139.332 26.6992C139.132 26.8997 138.894 27 138.618 27H130.534C130.258 27 130.02 26.8997 129.82 26.6992C129.619 26.4987 129.519 26.2605 129.519 25.9848V1.6952C129.519 1.41947 129.619 1.18133 129.82 0.9808C130.02 0.780266 130.258 0.679999 130.534 0.679999H144.596ZM144.446 11.8096C145.048 11.8096 145.524 11.6341 145.875 11.2832C146.226 10.9072 146.401 10.4184 146.401 9.8168C146.401 9.19013 146.226 8.67627 145.875 8.2752C145.524 7.87413 145.048 7.6736 144.446 7.6736H139.671V11.8096H144.446ZM184.889 19.668C185.165 19.668 185.403 19.7683 185.603 19.9688C185.804 20.1693 185.904 20.4075 185.904 20.6832V25.9848C185.904 26.2605 185.804 26.4987 185.603 26.6992C185.403 26.8997 185.165 27 184.889 27H161.126C160.85 27 160.612 26.8997 160.411 26.6992C160.211 26.4987 160.111 26.2605 160.111 25.9848V1.6952C160.111 1.41947 160.211 1.18133 160.411 0.9808C160.612 0.780266 160.85 0.679999 161.126 0.679999H184.513C184.789 0.679999 185.027 0.780266 185.227 0.9808C185.428 1.18133 185.528 1.41947 185.528 1.6952V6.9968C185.528 7.27253 185.428 7.51067 185.227 7.7112C185.027 7.91173 184.789 8.012 184.513 8.012H169.887V10.3808H182.445C182.721 10.3808 182.959 10.4811 183.159 10.6816C183.36 10.8821 183.46 11.1203 183.46 11.396V16.284C183.46 16.5597 183.36 16.7979 183.159 16.9984C182.959 17.1989 182.721 17.2992 182.445 17.2992H169.887V19.668H184.889ZM219.579 25.8344C219.629 25.9347 219.654 26.0475 219.654 26.1728C219.654 26.3984 219.567 26.5989 219.391 26.7744C219.241 26.9248 219.053 27 218.827 27H210.292C209.941 27 209.615 26.9123 209.314 26.7368C209.039 26.5613 208.838 26.3357 208.713 26.06L205.404 18.6152H202.245V25.9848C202.245 26.2605 202.145 26.4987 201.945 26.6992C201.744 26.8997 201.506 27 201.23 27H193.109C192.833 27 192.595 26.8997 192.394 26.6992C192.194 26.4987 192.093 26.2605 192.093 25.9848V1.6952C192.093 1.41947 192.194 1.18133 192.394 0.9808C192.595 0.780266 192.833 0.679999 193.109 0.679999H207.735C209.991 0.679999 211.959 1.04347 213.638 1.7704C215.343 2.49733 216.646 3.55013 217.549 4.9288C218.451 6.30747 218.902 7.92427 218.902 9.7792C218.902 13.1883 217.586 15.6573 214.954 17.1864L219.579 25.8344ZM206.945 11.6592C207.497 11.6592 207.923 11.4837 208.224 11.1328C208.525 10.7568 208.675 10.2931 208.675 9.7416C208.675 9.19013 208.525 8.71387 208.224 8.3128C207.948 7.88667 207.522 7.6736 206.945 7.6736H202.245V11.6592H206.945ZM249.569 0.679999C249.845 0.679999 250.083 0.780266 250.284 0.9808C250.484 1.18133 250.584 1.41947 250.584 1.6952V7.7488C250.584 8.02453 250.484 8.26267 250.284 8.4632C250.083 8.66373 249.845 8.764 249.569 8.764H241.485V25.9848C241.485 26.2605 241.385 26.4987 241.184 26.6992C240.984 26.8997 240.746 27 240.47 27H232.724C232.449 27 232.211 26.8997 232.01 26.6992C231.809 26.4987 231.709 26.2605 231.709 25.9848V8.764H223.625C223.349 8.764 223.111 8.66373 222.911 8.4632C222.71 8.26267 222.61 8.02453 222.61 7.7488V1.6952C222.61 1.41947 222.71 1.18133 222.911 0.9808C223.111 0.780266 223.349 0.679999 223.625 0.679999H249.569Z" fill="black"/>
</svg>
